# xmcd
#
# Track frame offsets:
#	187
#	17440
#	28617
#	35385
#	50915
#	58240
#	71647
#	81712
#	94765
#	106207
#	120785
#	130470
#	142510
#	149967
#	162217
#	176025
#
# Disc length: 2581 seconds
#
# Revision: 1
# Processed by: cddbd v1.5.1PL0 Copyright (c) Steve Scherf et al.
# Submitted via: CDex 1.50Beta5
#
DISCID=e40a1310
DTITLE=コルベッツ - 刑事貴族3
DYEAR=1992
DGENRE=Soundtrack
TTITLE0=コルベッツ/Danger City
TTITLE1=TVサントラ/Something so Pure
TTITLE2=TVサントラ/Bullfighters,The
TTITLE3=TVサントラ/Ice Cold Tears
TTITLE4=TVサントラ/Passionate
TTITLE5=TVサントラ/Alone in the City
TTITLE6=TVサントラ/Lonely Skyscraper
TTITLE7=TVサントラ/Mou Namida wa iranai
TTITLE8=TVサントラ/Action for Justice
TTITLE9=TVサントラ/Day Together,A
TTITLE10=TVサントラ/Determined
TTITLE11=TVサントラ/Misty Rain
TTITLE12=TVサントラ/Man was Here,The
TTITLE13=TVサントラ/Suspicious Walk
TTITLE14=TVサントラ/Cross My Heart
TTITLE15=コルベッツ/One Heart
EXTD=
EXTT0=
EXTT1=
EXTT2=
EXTT3=
EXTT4=
EXTT5=
EXTT6=
EXTT7=
EXTT8=
EXTT9=
EXTT10=
EXTT11=
EXTT12=
EXTT13=
EXTT14=
EXTT15=
PLAYORDER=
